<?xml version="1.0" encoding="UTF-8"?>
<!DOCTYPE svg PUBLIC "-//W3C//DTD SVG 1.1//EN" "http://www.w3.org/Graphics/SVG/1.1/DTD/svg11.dtd">
<!-- Creator: CorelDRAW -->
<svg xmlns="http://www.w3.org/2000/svg" xml:space="preserve" width="6.82666in" height="6.82666in" style="shape-rendering:geometricPrecision; text-rendering:geometricPrecision; image-rendering:optimizeQuality; fill-rule:evenodd; clip-rule:evenodd"
viewBox="0 0 6.82666 6.82666"
 xmlns:xlink="http://www.w3.org/1999/xlink">
 <defs>
  <style type="text/css">
   <![CDATA[
    .fil2 {fill:none}
    .fil0 {fill:#424242}
    .fil1 {fill:#FFFFFE;fill-rule:nonzero}
   ]]>
  </style>
 </defs>
 <rect class="fil0" width="6.82666" height="6.82666"/>
 <g id="Layer_x0020_1">
  <metadata id="CorelCorpID_0Corel-Layer"/>
  <path class="fil1" d="M1.65333 0.838571c0.17887,0 0.340827,0.0725118 0.458059,0.189748 0.117228,0.117228 0.189748,0.279185 0.189748,0.458059 0,0.17887 -0.0725197,0.340831 -0.189748,0.458059 -0.117228,0.117228 -0.279189,0.189748 -0.458059,0.189748 -0.178874,0 -0.340831,-0.0725197 -0.458059,-0.189748 -0.117236,-0.117232 -0.189748,-0.279189 -0.189748,-0.458059 0,-0.178874 0.0725118,-0.340827 0.189748,-0.458059 0.117232,-0.117236 0.279185,-0.189748 0.458059,-0.189748zm0.307224 0.340583c-0.0786142,-0.0786181 -0.18724,-0.127244 -0.307224,-0.127244 -0.119988,0 -0.22861,0.048626 -0.307224,0.127244 -0.0786181,0.0786142 -0.127244,0.187236 -0.127244,0.307224 0,0.119984 0.048626,0.22861 0.127244,0.307224 0.0786102,0.0786102 0.187236,0.127244 0.307224,0.127244 0.119984,0 0.228614,-0.0486339 0.307224,-0.127244 0.0786102,-0.0786102 0.127244,-0.18724 0.127244,-0.307224 0,-0.119988 -0.0486339,-0.228614 -0.127244,-0.307224z"/>
  <path class="fil1" d="M2.18974 2.35023l0.99211 0.935047c0.00373228,0.00351575 0.00768898,0.00744094 0.0118386,0.0117402 0.0682598,0.0706654 0.100028,0.163236 0.0978346,0.255736 -0.00215354,0.0906535 -0.0372362,0.18152 -0.102756,0.251047 -0.00335827,0.00356299 -0.00707087,0.0073189 -0.011122,0.0112677l0.000188976 0.000188976c-0.0722913,0.0722913 -0.166386,0.104858 -0.260657,0.103232 -0.0961417,-0.00165354 -0.192543,-0.0396102 -0.264744,-0.107661l-0.198516 -0.187098c0.000582677,0.219114 0.00135039,0.437957 0.00211811,0.656894 0.00176772,0.504126 0.00354331,1.00856 0.00354331,1.33858 0,0.101555 -0.0414724,0.193807 -0.108276,0.260614 -0.0668071,0.0668031 -0.159059,0.108276 -0.26061,0.108276 -0.101551,0 -0.193803,-0.0414724 -0.26061,-0.10828 -0.0668071,-0.0668071 -0.10828,-0.159059 -0.10828,-0.26061l0 -1.0325 -0.130693 0.00065748 0 1.03185c0,0.101547 -0.0414724,0.193795 -0.10828,0.26061 -0.0668071,0.0668071 -0.159055,0.10828 -0.260606,0.10828 -0.101551,0 -0.193803,-0.0414724 -0.26061,-0.10828 -0.0668071,-0.0668071 -0.10828,-0.159059 -0.10828,-0.26061l0 -2.67112c0,-0.198024 0.0730551,-0.379917 0.193555,-0.520075 0.122323,-0.142276 0.293457,-0.241472 0.48665,-0.270839 0.111213,-0.0169094 0.23665,-0.00664173 0.353882,0.0274764 0.113984,0.0331693 0.221429,0.0893386 0.302319,0.165583zm0.846276 1.09005l-0.99211 -0.935047c-0.0559291,-0.0527165 -0.13272,-0.0922874 -0.21565,-0.116417 -0.087689,-0.0255197 -0.180945,-0.0332874 -0.263047,-0.0208071 -0.141681,0.0215354 -0.267098,0.0941772 -0.35665,0.198335 -0.0883346,0.10274 -0.141886,0.236244 -0.141886,0.381744l0 2.67112c0,0.0426654 0.0175354,0.0815354 0.0457756,0.109776 0.0282402,0.0282402 0.0671102,0.0457756 0.109776,0.0457756 0.0426654,0 0.0815315,-0.0175354 0.109772,-0.0457756 0.0282441,-0.0282441 0.0457756,-0.0671142 0.0457756,-0.109776l0 -1.13756 0 -0.105717 0.106252 -0.000535433 0.344031 -0.00174016 0.107087 -0.000543307 0 0.106795 0 1.1393c0,0.0426654 0.0175354,0.0815354 0.0457756,0.109776 0.0282402,0.0282402 0.0671102,0.0457756 0.109776,0.0457756 0.0426693,0 0.0815354,-0.0175354 0.109776,-0.0457717 0.0282362,-0.0282402 0.0457717,-0.0671102 0.0457717,-0.10978 0,-0.567303 -0.00135827,-0.953201 -0.00270866,-1.33858 -0.00105512,-0.301126 -0.00211811,-0.602075 -0.00268504,-0.903787l-0.000464567 -0.246799 0.179634 0.169299 0.378252 0.356492c0.0336496,0.0317165 0.0781535,0.0493976 0.12224,0.0501575 0.0388819,0.000669291 0.0773701,-0.0124409 0.106492,-0.041563l0.00166535 -0.00124803c0.0014252,-0.00137795 0.00313386,-0.00311811 0.00510236,-0.00520866 0.0288583,-0.030626 0.044311,-0.0705118 0.045252,-0.110213 0.000897638,-0.0378543 -0.0116535,-0.0752756 -0.0386614,-0.103232 -0.00108268,-0.00112205 -0.0025315,-0.00253937 -0.00434252,-0.00424409z"/>
  <path class="fil1" d="M3.75283 2.18208c0.0319843,-0.0492441 0.0978386,-0.0632323 0.147083,-0.031248 0.0492441,0.0319843 0.0632323,0.0978386 0.031248,0.147083l-0.733063 1.12278c-0.0319843,0.0492441 -0.0978386,0.0632323 -0.147083,0.031248 -0.0492441,-0.0319843 -0.0632323,-0.0978386 -0.031248,-0.147083l0.733063 -1.12278z"/>
  <path class="fil1" d="M3.09333 0.858882l2.77333 0 0.106669 0 0 0.106669 0 1.91444 0 0.106669 -0.106669 0 -2.77333 0 -0.106669 0 0 -0.106669 0 -1.91444 0 -0.106669 0.106669 0zm2.66666 0.213339l-2.55999 0 0 1.70111 2.55999 0 0 -1.70111z"/>
  <polygon class="fil1" points="5.02722,2.85791 5.69389,5.95125 5.48556,5.99541 4.81889,2.90208 "/>
  <polygon class="fil1" points="4.14111,2.90208 3.47444,5.99541 3.26611,5.95125 3.93278,2.85791 "/>
  <polygon class="fil1" points="3.73333,4.47999 5.22667,4.47999 5.22667,4.69333 3.73333,4.69333 "/>
  <rect class="fil2" width="6.82666" height="6.82666"/>
 </g>
</svg>
