<?xml version="1.0" ?><svg id="outine" viewBox="0 0 48 48" xmlns="http://www.w3.org/2000/svg"><title/><path d="M47.25,1.7H.75a.75.75,0,0,0-.75.75V36.282a.75.75,0,0,0,.75.75H19.888l-.773,5.117H15.232a.75.75,0,0,0-.75.75v2.65a.75.75,0,0,0,.75.75H32.768a.75.75,0,0,0,.75-.75V42.9a.75.75,0,0,0-.75-.75h-3.9L28.1,37.032H47.25a.75.75,0,0,0,.75-.75V2.451A.75.75,0,0,0,47.25,1.7Zm-19.9,40.448h-.789a.75.75,0,1,0,0,1.5h5.453V44.8H15.982v-1.15h8.164a.75.75,0,0,0,0-1.5H20.631l.774-5.117h5.176ZM46.5,35.532H1.5V3.2h45Z"/><path d="M3.916,31.372H6.429a.75.75,0,1,0,0-1.5H4.666V6.5H43.334V29.872H8.957a.75.75,0,0,0,0,1.5H44.084a.75.75,0,0,0,.75-.75V5.746a.75.75,0,0,0-.75-.75H3.916a.75.75,0,0,0-.75.75V30.622A.75.75,0,0,0,3.916,31.372Z"/><path d="M13.5,27.455V24.771l2.91,3.189a.746.746,0,0,0,.554.245.751.751,0,0,0,.75-.75V22.837a.75.75,0,0,0-1.5,0v2.684l-2.91-3.189a.75.75,0,0,0-1.3.5v4.618a.75.75,0,0,0,1.5,0Z"/><path d="M21.88,23.587a.75.75,0,0,0,0-1.5H19.441a.75.75,0,0,0-.75.75v4.618a.75.75,0,0,0,.75.75H21.88a.75.75,0,0,0,0-1.5H20.191V25.9h.914a.75.75,0,1,0,0-1.5h-.914v-.809Z"/><path d="M29.281,22.607l-.773,2.4-.775-2.4a.771.771,0,0,0-.731-.52.751.751,0,0,0-.714.52l-.773,2.4-.775-2.4a.75.75,0,0,0-1.428.46L24.8,27.685a.75.75,0,0,0,1.428,0l.782-2.43.783,2.43a.75.75,0,0,0,1.428,0l1.487-4.618a.75.75,0,0,0-1.428-.46Z"/><path d="M34.093,26.705h-2.23a.75.75,0,0,0,0,1.5h2.23a1.9,1.9,0,0,0,0-3.809H33.019a.4.4,0,1,1,0-.809h2.228a.75.75,0,0,0,0-1.5H33.019a1.9,1.9,0,1,0,0,3.809h1.074a.4.4,0,0,1,0,.809Z"/><path d="M18.965,12.468a.75.75,0,0,0-.75.75v1.549a.75.75,0,0,0,1.5,0v-.025h.641a4.31,4.31,0,0,0,.7,1.712l-.456.456-.018-.018a.75.75,0,0,0-1.061,1.061l.548.547h0l.547.547a.75.75,0,0,0,1.061-1.061l-.018-.017.454-.453a4.3,4.3,0,0,0,1.717.722v.646h-.024a.75.75,0,0,0,0,1.5h1.548a.75.75,0,0,0,0-1.5h-.024v-.642a4.276,4.276,0,0,0,1.735-.7l.444.444L27.494,18a.75.75,0,1,0,1.061,1.06l1.094-1.095a.75.75,0,0,0-1.06-1.061l-.018.018-.441-.442a4.292,4.292,0,0,0,.723-1.738H29.5v.025a.75.75,0,0,0,1.5,0V13.218a.75.75,0,0,0-1.5,0v.024h-.647a4.3,4.3,0,0,0-.724-1.739l.452-.452.017.017a.75.75,0,1,0,1.06-1.061l-.546-.546h0l-.548-.547A.75.75,0,0,0,27.5,9.973l.017.017-.454.454a4.3,4.3,0,0,0-1.734-.7V9.1h.024a.75.75,0,0,0,0-1.5H23.808a.75.75,0,0,0,0,1.5h.024v.646a4.278,4.278,0,0,0-1.716.721L21.652,10l.018-.018a.75.75,0,0,0-1.061-1.061l-1.1,1.1a.75.75,0,1,0,1.06,1.06l.017-.017.467.466a4.3,4.3,0,0,0-.7,1.713h-.641v-.024A.75.75,0,0,0,18.965,12.468Zm5.639-1.3a2.82,2.82,0,0,1,2.021,4.792c-.014.013-.032.017-.046.031s-.014.025-.025.037A2.817,2.817,0,0,1,21.781,14l0-.01,0-.009A2.827,2.827,0,0,1,24.6,11.167Z"/><path d="M23.14,14.57a.714.714,0,0,0,.29.06.751.751,0,0,0,.53-.22.767.767,0,0,0,.22-.53.717.717,0,0,0-.06-.29.756.756,0,0,0-.98-.41.824.824,0,0,0-.241.17.642.642,0,0,0-.159.24.717.717,0,0,0-.06.29.771.771,0,0,0,.219.53A.792.792,0,0,0,23.14,14.57Z"/><path d="M25.2,13.61a.982.982,0,0,0,.29.05.751.751,0,0,0,.75-.75.767.767,0,0,0-.22-.53.753.753,0,0,0-.82-.16.746.746,0,0,0-.46.69.745.745,0,0,0,.22.53A.794.794,0,0,0,25.2,13.61Z"/><path d="M25.25,15.93a.751.751,0,0,0,.75-.75.749.749,0,0,0-.22-.53.739.739,0,0,0-.25-.17.716.716,0,0,0-.81.17.749.749,0,0,0-.22.53.767.767,0,0,0,.22.53A.748.748,0,0,0,25.25,15.93Z"/></svg>